# xmcd
#
# Track frame offsets: 
#        150
#        21840
#        40063
#        55542
#        70913
#        88961
#        101147
#        121004
#        137561
#        154031
#        167265
#        186084
#
# Disc length: 2752 seconds
#
# Revision: 0
# Processed by: cddbd v1.5.2PL0 Copyright (c) Steve Scherf et al.
# Submitted via: ExactAudioCopyFreeDBPlugin 1.0
#
DISCID=920abe0c
DTITLE=Mike Randolph - Lonely Side of Lonesome
DYEAR=1998
DGENRE=Country
TTITLE0=Looks Like Love Lost Its Heart
TTITLE1=Call Me A Fool
TTITLE2=Don´t Know Where I´m Going
TTITLE3=My Baby
TTITLE4=Little Things
TTITLE5=Restless
TTITLE6=Heart of Mine
TTITLE7=Pick up the Phone
TTITLE8=Daddy Squeeze My Hand
TTITLE9=Lonely Side of Lonesome
TTITLE10=Lets Forget About Everything For A While
TTITLE11=It's A Damn Crying Shame
EXTD=
EXTT0=
EXTT1=
EXTT2=
EXTT3=
EXTT4=
EXTT5=
EXTT6=
EXTT7=
EXTT8=
EXTT9=
EXTT10=
EXTT11=
PLAYORDER=
